<?xml version="1.0" encoding="utf-8"?>
<!-- Generator: Adobe Illustrator 16.0.4, SVG Export Plug-In . SVG Version: 6.00 Build 0)  -->
<!DOCTYPE svg PUBLIC "-//W3C//DTD SVG 1.1//EN" "http://www.w3.org/Graphics/SVG/1.1/DTD/svg11.dtd">
<svg version="1.1" id="Layer_1" xmlns="http://www.w3.org/2000/svg" xmlns:xlink="http://www.w3.org/1999/xlink" x="0px" y="0px"
	 width="300px" height="300px" viewBox="0 0 300 300" enable-background="new 0 0 300 300" xml:space="preserve">
<g>
	<defs>
		<rect id="SVGID_1_" x="-66" y="-66" width="432" height="432"/>
	</defs>
	<clipPath id="SVGID_2_">
		<use xlink:href="#SVGID_1_"  overflow="visible"/>
	</clipPath>
	<path clip-path="url(#SVGID_2_)" fill="#58595B" d="M252.92,89.856c-11.814-4.945-23.594-9.968-35.4-14.931
		c-0.716-0.302-1.583-0.469-2.347-0.387c-1.86,0.199-126.708,20.044-130.988,20.729v4.244c-2.708,0.451-5.219,0.87-7.89,1.315
		c0,1.87-0.075,3.618,0.024,5.357c0.078,1.376-0.305,1.969-1.795,2.178c-3.834,0.537-7.636,1.301-11.45,1.976
		c-13.163,2.331-26.326,4.66-39.489,6.994c-5.771,1.023-11.54,2.056-17.488,3.117c0,1.549,0.116,2.987-0.021,4.401
		c-0.484,4.98,1.371,9.103,5.101,12.121c4.116,3.329,8.389,6.591,12.993,9.167c21.767,12.179,45.682,17.167,70.089,20.374
		c2.898,0.382,5.809,0.673,8.714,1.005c0.131,0.183,0.262,0.363,0.392,0.546c-1.373,1.584-2.616,3.307-4.141,4.728
		c-8.681,8.09-18.176,15.145-28.068,21.666c-1.216,0.802-1.624,1.629-1.586,3.033c0.096,3.568,0.094,7.145-0.002,10.715
		c-0.033,1.219,0.378,1.973,1.322,2.654c2.081,1.502,4.111,3.073,6.156,4.626c13.566,10.298,27.121,20.609,40.72,30.864
		c0.701,0.528,1.849,0.956,2.65,0.784c12.146-2.614,24.266-5.353,36.404-8.01c1.098-0.241,1.411-0.726,1.395-1.78
		c-0.052-3.132,0.047-6.268-0.05-9.398c-0.043-1.392,0.463-2.104,1.697-2.722c6.532-3.272,13.523-4.006,20.639-3.566
		c6.645,0.411,12.745,2.852,18.657,5.817c0.945,0.476,2.3,0.677,3.307,0.408c10.556-2.809,21.069-5.783,31.627-8.587
		c1.452-0.386,1.687-1.028,1.677-2.313c-0.046-7.019-0.062-14.038,0.014-21.057c0.015-1.41-0.434-2.249-1.548-3.103
		c-8.502-6.509-16.989-13.038-25.387-19.682c-3.964-3.137-6.673-7.233-8.183-12.1c-2.385-7.687-0.634-13.475,5.883-18.108
		c2.941-2.09,6.129-3.89,9.366-5.498c6.878-3.418,13.988-6.387,20.766-9.986c6.545-3.475,12.591-7.765,16.979-13.942
		c0.499-0.702,0.819-1.693,0.83-2.555c0.068-6.203-0.005-12.409,0.068-18.612C254.574,91.004,254.155,90.373,252.92,89.856
		 M77.901,200.973c-0.003-0.354-0.002-0.711-0.007-1.063c8.073-5.423,15.159-10.757,21.468-16.159
		c-1.429,4.592-2.205,9.473-2.205,14.535c0,7.313,1.609,14.251,4.488,20.482L77.901,200.973z M19.973,127.326
		c-0.007-0.194-0.015-0.388-0.023-0.582c10.821-1.905,21.642-3.804,32.462-5.716c10.333-1.825,20.663-3.672,31-5.479
		c0.713-0.124,1.564-0.215,2.192,0.051c8.372,3.546,14.323,9.45,17.385,18.108c0.059,0.168,0.03,0.366,0.062,0.84
		C74.582,140.482,46.992,137.18,19.973,127.326 M108.807,122.166c-6.944-4.58-14.018-8.963-21.04-13.425
		c-0.449-0.285-0.876-0.605-1.46-1.011c2.777-0.729,5.017-0.593,7.395,1.013c6.373,4.304,12.95,8.304,19.443,12.431
		c0.566,0.36,1.106,0.762,1.867,1.29C112.727,123.104,110.888,123.539,108.807,122.166 M148.043,216.012
		c-4.68,1.155-9.121,2.252-13.95,3.444c2.172-28.551,19.96-45.99,20.218-45.755C148.689,185.986,145.426,202.297,148.043,216.012
		 M223.783,197.484c-4.815,1.404-9.277,2.713-13.743,4.009c-2.515,0.729-6.102,1.739-7.567,2.113
		c-1.653-2.643-7.169-19.188-32.453-32.757C195.93,172.761,223.538,197.556,223.783,197.484 M119.607,117.617
		c-0.492,0.081-1.129-0.099-1.562-0.373c-7.554-4.784-15.087-9.601-22.622-14.414c-0.1-0.064-0.167-0.178-0.526-0.573
		c4.903-0.784,113.997-18.009,118.998-18.759c0.699-0.105,1.52-0.004,2.171,0.269c9.446,3.946,18.873,7.938,28.304,11.923
		c0.222,0.093,0.424,0.233,1.097,0.609C242.376,96.84,126.18,116.531,119.607,117.617"/>
	<path clip-path="url(#SVGID_2_)" fill="#F7941E" d="M158.053,14.053c-58.565,0-108.599,37.224-127.685,89.255l14.633-2.6
		c19.024-43.571,62.471-74.034,113.052-74.034c68.111,0,123.327,55.214,123.327,123.326c0,68.11-55.216,123.326-123.327,123.326
		c-62.856,0-114.692-47.036-122.322-107.824c-4.449-1.765-8.875-3.757-13.256-6.005c4.897,70.543,63.812,126.449,135.578,126.449
		C233.014,285.946,294,224.961,294,150C294,75.038,233.014,14.053,158.053,14.053"/>
</g>
</svg>
